<svg width="41" height="439" viewBox="0 0 41 439" fill="none" xmlns="http://www.w3.org/2000/svg">
<path d="M372 298.668V71.9306C368.739 61.2438 358.974 53.4878 347.443 53.4878L280.469 53.175C273.562 53.1393 267.959 47.4474 267.889 40.3973L267.74 26.0201C267.591 11.6072 256.122 0 242.02 0H238.716C224.571 0 212.996 11.8306 212.996 26.2882V26.5562C212.996 41.1657 201.299 53.1125 187.014 53.1125H185.834C171.628 53.1125 160.114 64.8805 160.114 79.4007V82.7783C160.114 97.2984 171.628 109.066 185.834 109.066L240.823 109.737C255.029 109.737 266.542 121.505 266.542 136.025V137.052C266.542 151.573 255.029 163.341 240.823 163.341L120.354 164.663C113.448 164.627 107.844 158.935 107.774 151.885L107.626 78.3641C107.477 63.9512 96.0073 52.344 81.9061 52.344H78.6015C64.4566 52.344 52.8818 64.1746 52.8818 78.6322V138.044C52.8818 152.654 41.1847 164.6 26.8999 164.6H25.7197C11.5135 164.6 0 176.368 0 190.889V194.266C0 208.786 11.5135 220.554 25.7197 220.554L80.7084 221.225C94.9145 221.225 106.428 232.993 106.428 247.513V248.54C106.428 263.06 94.9145 274.828 80.7084 274.828L18.6297 274.167C8.55866 274.167 0.402143 282.504 0.402143 292.798V330.023V356.669C0.402143 371.189 11.9157 382.957 26.1218 382.957H28.6833C42.8895 382.957 54.403 371.189 54.403 356.669V356.311C54.403 341.791 65.9165 330.023 80.1227 330.023H81.1105C95.3167 330.023 106.83 318.255 106.83 303.735V301.858C106.83 287.338 118.344 275.57 132.55 275.57H134.867C149.073 275.57 160.586 287.338 160.586 301.858V302.368C160.586 316.888 149.073 328.656 134.867 328.656H133.101C118.895 328.656 107.381 340.424 107.381 354.944V357.562C107.381 372.082 118.895 383.85 133.101 383.85H134.867C149.073 383.85 160.586 395.618 160.586 410.138C160.586 410.138 158.2 438.419 186.306 438.419C200.433 438.419 216.056 435.328 216.056 408.012L214.517 244.805C214.517 230.285 226.031 218.517 240.237 218.517H241.225C255.431 218.517 266.944 206.749 266.944 192.229V190.352C266.944 175.832 278.458 164.064 292.664 164.064H294.981C309.187 164.064 320.7 175.832 320.7 190.352V190.862C320.7 205.382 309.187 217.15 294.981 217.15H293.215C279.009 217.15 267.495 228.918 267.495 243.438V246.056C267.495 260.576 279.009 272.344 293.215 272.344H294.981C309.187 272.344 320.7 284.112 320.7 298.633V412.783C320.7 427.259 332.188 439 346.35 439C360.513 439 372 427.259 372 412.783V298.633V298.668Z" fill="#78F8AD"/>
</svg>
