<svg width="268" height="416" viewBox="0 0 268 416" fill="none" xmlns="http://www.w3.org/2000/svg">
<path d="M-117.046 0.439453H-70.1895C-58.3653 0.439677 -48.7578 10.2397 -48.7578 22.3408V70.085C-48.7576 82.6533 -38.7739 92.8643 -26.4473 92.8643H19.9229C32.2495 92.8643 42.2332 82.6533 42.2334 70.085V68.543C42.2334 56.4418 51.8408 46.6408 63.665 46.6406H110.438C122.262 46.6409 131.869 56.4419 131.869 68.543V70.085C131.869 82.6532 141.853 92.8643 154.18 92.8643H246.129C257.953 92.8643 267.56 102.665 267.561 114.766V161.928C267.56 174.029 257.953 183.829 246.129 183.829H244.388C232.061 183.829 222.077 194.041 222.077 206.609V255.452C222.077 267.553 212.469 277.354 200.645 277.354H148.954C142.277 277.355 137.077 283.162 137.585 289.885L137.613 290.205C138.197 295.919 142.784 300.322 148.367 300.612L148.91 300.627C158.205 300.659 172.458 300.695 184.387 300.722C190.351 300.735 195.735 300.747 199.628 300.755C201.574 300.759 203.147 300.761 204.234 300.764C204.778 300.765 205.199 300.766 205.485 300.767C205.628 300.767 205.738 300.766 205.812 300.767C205.848 300.767 205.875 300.768 205.894 300.768H205.923C213.883 300.768 220.346 307.365 220.346 315.521L220.293 389.055C220.283 397.199 213.82 403.787 205.87 403.787H155.023C147.063 403.787 140.601 397.2 140.601 389.045V341.021C140.601 332.4 133.765 325.403 125.304 325.4H125.305L106.494 325.185C96.3009 325.076 87.5498 332.96 86.8359 343.279L86.8076 343.772C86.786 344.13 86.7861 344.475 86.7861 344.815V393.659C86.7861 405.76 77.1787 415.56 65.3545 415.561H-36.9297C-48.7538 415.56 -58.3613 405.76 -58.3613 393.659V344.815C-58.3615 332.247 -68.3452 322.036 -80.6719 322.036H-162.129C-173.953 322.036 -183.561 312.235 -183.561 300.134V252.973C-183.561 240.871 -173.953 231.071 -162.129 231.071H-115.368C-103.041 231.071 -93.0576 220.86 -93.0576 208.291V160.698C-93.0576 148.859 -83.8681 139.207 -72.3711 138.798L-71.8213 138.786H-70.3867C-58.1352 138.676 -48.2812 128.497 -48.2812 116.006V115.402C-48.2812 102.834 -58.2641 92.6222 -70.5908 92.6221H-117.046C-128.87 92.6221 -138.478 82.8219 -138.479 70.7207V22.3408C-138.479 10.2396 -128.87 0.439453 -117.046 0.439453ZM18.8887 183.818C6.56189 183.818 -3.42188 194.03 -3.42188 206.599V208.28C-3.42188 220.849 6.56189 231.061 18.8887 231.061H110.131C122.458 231.061 132.441 220.849 132.441 208.28V206.599C132.441 194.03 122.458 183.818 110.131 183.818H18.8887Z" stroke="#0AE98A" stroke-width="0.878074"/>
</svg>
