<svg width="275" height="481" viewBox="0 0 275 481" fill="none" xmlns="http://www.w3.org/2000/svg">
<path d="M507.908 106.847H399.341C385.082 106.847 373.515 95.2796 373.515 81.02V79.2376C373.515 64.9781 361.948 53.4109 347.688 53.4109H292.457C278.198 53.4109 266.631 64.9781 266.631 79.2376V81.02C266.631 95.2796 255.064 106.847 240.804 106.847H186.047C171.787 106.847 160.22 95.2796 160.22 81.02V25.8267C160.22 11.5672 148.653 0 134.394 0H79.0631C64.8036 0 53.2364 11.5672 53.2364 25.8267V81.7554C53.2364 96.015 64.8036 107.582 79.0631 107.582H133.92C148.179 107.582 159.747 119.149 159.747 133.409V134.107C159.747 148.279 148.329 159.809 134.157 159.934H132.462C118.289 160.071 106.872 171.6 106.872 185.773V240.792C106.872 255.051 95.3045 266.618 81.045 266.618H25.8267C11.5672 266.618 0 278.185 0 292.445V346.965C0 361.225 11.5672 372.792 25.8267 372.792H122.016C136.276 372.792 147.843 384.359 147.843 398.619V455.083C147.843 469.343 159.41 480.91 173.67 480.91H294.452C308.711 480.91 320.278 469.343 320.278 455.083V398.619C320.278 398.22 320.278 397.833 320.303 397.434C320.839 385.506 331.073 376.307 343.026 376.432L365.238 376.681C374.936 376.681 382.788 384.534 382.788 394.231V449.748C382.788 459.446 390.641 467.299 400.339 467.299H460.381C470.066 467.299 477.918 459.446 477.931 449.761L477.993 364.752C477.993 355.055 470.141 347.19 460.443 347.19C460.443 347.19 415.072 347.102 393.122 347.028C386.515 347.003 380.981 342.004 380.296 335.435C379.498 327.795 385.481 321.139 393.172 321.139H454.211C468.47 321.139 480.037 309.571 480.037 295.312V238.847C480.037 224.588 491.605 213.02 505.864 213.02H507.921C522.18 213.02 533.747 201.453 533.747 187.194V132.673C533.747 118.414 522.18 106.847 507.921 106.847H507.908ZM239.582 266.606C225.323 266.606 213.756 255.039 213.756 240.779V238.835C213.756 224.575 225.323 213.008 239.582 213.008H347.327C361.586 213.008 373.153 224.575 373.153 238.835V240.779C373.153 255.039 361.586 266.606 347.327 266.606H239.582Z" fill="#0AE98A"/>
</svg>
